#N canvas 678 207 820 582 12;
#X obj 18 19 inlet;
#X obj 18 43 list split 1;
#X obj 18 246 tabread4~ sawtooth;
#X obj 18 67 mtof;
#X obj 18 198 phasor~;
#X obj 18 222 *~ 2051;
#X obj 469 68 > 0;
#X obj 469 116 *~;
#X obj 487 41 moses 1e-05;
#X obj 18 409 *~;
#X obj 561 66 expr $f1/170+0.25;
#X obj 18 434 outlet~;
#X obj 469 15 r \$0-vel;
#X obj 58 67 s \$0-vel;
#X obj 157 247 tabread4~ sawtooth;
#X obj 157 199 phasor~;
#X obj 157 223 *~ 2051;
#X obj 469 140 s~ \$0-env;
#X obj 78 382 r~ \$0-env;
#X obj 298 246 tabread4~ sawtooth;
#X obj 298 198 phasor~;
#X obj 298 222 *~ 2051;
#X obj 57 92 expr 1-$f1;
#X obj 337 94 expr 1+$f1;
#X msg 301 42 0;
#X obj 301 17 loadbang;
#X obj 337 42 r spread;
#X obj 337 69 / 10000;
#X obj 641 41 r release;
#X floatatom 483 250 5 0 0 0 - - -;
#X obj 367 373 pack f f f f;
#X msg 368 402 freq \$1 \$2 \$3 \$4;
#X obj 585 293 * 2.04;
#X obj 635 293 * 3.97;
#X obj 522 292 * 1.667;
#X obj 502 330 f;
#X obj 534 329 f;
#X obj 568 329 f;
#X obj 436 297 t f b b b;
#X obj 251 300 else/brown~;
#X obj 249 364 *~;
#X obj 251 442 else/resonbank~ 4 -freq 200 300 700 800 -decay 900 800
700 900 -amp 0.6 0.1 0.2 0.2;
#X obj 279 332 r~ \$0-env;
#X obj 18 382 *~ 0.25;
#X obj 17 129 sig~;
#X obj 17 159 *~ 0.99;
#X obj 298 161 *~ 1.01;
#X obj 468 92 else/adsr~ 515 25 0.9 1000;
#X connect 0 0 1 0;
#X connect 1 0 3 0;
#X connect 1 1 13 0;
#X connect 2 0 43 0;
#X connect 3 0 15 0;
#X connect 3 0 29 0;
#X connect 3 0 44 0;
#X connect 4 0 5 0;
#X connect 5 0 2 0;
#X connect 6 0 47 0;
#X connect 7 0 17 0;
#X connect 8 1 10 0;
#X connect 9 0 11 0;
#X connect 10 0 7 1;
#X connect 12 0 6 0;
#X connect 12 0 8 0;
#X connect 14 0 43 0;
#X connect 15 0 16 0;
#X connect 16 0 14 0;
#X connect 18 0 9 1;
#X connect 19 0 43 0;
#X connect 20 0 21 0;
#X connect 21 0 19 0;
#X connect 22 0 45 1;
#X connect 23 0 46 1;
#X connect 24 0 27 0;
#X connect 25 0 24 0;
#X connect 26 0 27 0;
#X connect 27 0 22 0;
#X connect 27 0 23 0;
#X connect 28 0 47 4;
#X connect 29 0 32 0;
#X connect 29 0 33 0;
#X connect 29 0 34 0;
#X connect 29 0 38 0;
#X connect 30 0 31 0;
#X connect 31 0 41 1;
#X connect 32 0 36 1;
#X connect 33 0 37 1;
#X connect 34 0 35 1;
#X connect 35 0 30 1;
#X connect 36 0 30 2;
#X connect 37 0 30 3;
#X connect 38 0 30 0;
#X connect 38 1 35 0;
#X connect 38 2 36 0;
#X connect 38 3 37 0;
#X connect 39 0 40 0;
#X connect 40 0 41 0;
#X connect 41 0 43 0;
#X connect 42 0 40 1;
#X connect 43 0 9 0;
#X connect 44 0 45 0;
#X connect 44 0 46 0;
#X connect 45 0 4 0;
#X connect 46 0 20 0;
#X connect 47 0 7 0;
