#N canvas 543 154 1137 874 12;
#X obj 27 19 inlet;
#X obj 28 96 mtof;
#X obj 33 205 phasor~;
#X obj 33 231 *~ 2051;
#X obj 33 414 *~;
#X obj 156 205 phasor~;
#X obj 156 231 *~ 2051;
#X obj 280 206 phasor~;
#X obj 280 231 *~ 2051;
#X obj 34 494 outlet~;
#X obj 59 318 > 0;
#X obj 93 387 *~;
#X obj 111 312 moses 1e-05;
#X obj 185 337 expr $f1/170+0.25;
#X msg 385 131 0.992;
#X obj 385 107 loadbang;
#X obj 318 155 +~;
#X obj 280 181 *~;
#X obj 442 461 outlet~;
#X obj 406 204 phasor~;
#X obj 406 230 *~ 2051;
#X obj 530 224 phasor~;
#X obj 530 249 *~ 2051;
#X obj 635 106 loadbang;
#X obj 568 154 +~;
#X obj 530 180 *~;
#X obj 350 416 *~;
#X obj 412 392 *~;
#X obj 33 387 *~ 0.33;
#X obj 351 393 *~ 0.33;
#X obj 409 366 else/adsr~ 45 0 0.99 320;
#X obj 93 363 else/adsr~ 34 0 0.99 500;
#X obj 90 70 del 1;
#X msg 90 94 0;
#X obj 143 68 sel 1;
#X obj 213 71 bng 15 250 50 0 empty empty empty 17 7 0 10 -262144 -1
-1;
#X obj 167 115 vline~;
#X msg 634 130 0.995;
#X obj 28 144 line~;
#X msg 28 120 \$1 5;
#X obj 407 256 tabread4~ $swt2;
#X obj 156 257 tabread4~ $swt2;
#X obj 33 257 tabread4~ $swt;
#X obj 645 279 tabread4~ $swt2;
#X obj 530 279 tabread4~ $swt;
#X obj 531 308 expr~ $v1*$v3+$v2*$v3;
#X obj 799 242 expr~ 0.5*(1+$v1);
#X obj 395 282 tabread4~ $swt2;
#X obj 280 282 tabread4~ $swt;
#X obj 281 311 expr~ $v1*$v3+$v2*$v3;
#X obj 318 107 osc~ 0.28;
#X obj 568 106 osc~ 0.135;
#X obj 32 45 list split 1;
#X obj 156 181 *~ 1.5005;
#X obj 406 178 *~ 0.665;
#X obj 44 356 *~ 0.3;
#X obj 339 337 *~ 0.4;
#X obj 568 130 *~ 0.004;
#X obj 318 131 *~ 0.006;
#X obj 117 144 expr~ $v1-$v1*$v2;
#X msg 165 91 0 \, 0.00725 2000;
#X connect 0 0 52 0;
#X connect 1 0 39 0;
#X connect 2 0 3 0;
#X connect 3 0 42 0;
#X connect 4 0 9 0;
#X connect 5 0 6 0;
#X connect 6 0 41 0;
#X connect 7 0 8 0;
#X connect 8 0 48 0;
#X connect 8 0 47 0;
#X connect 10 0 34 0;
#X connect 10 0 30 0;
#X connect 10 0 31 0;
#X connect 11 0 4 1;
#X connect 12 1 13 0;
#X connect 13 0 11 1;
#X connect 13 0 27 1;
#X connect 14 0 16 1;
#X connect 15 0 14 0;
#X connect 16 0 17 1;
#X connect 17 0 7 0;
#X connect 19 0 20 0;
#X connect 20 0 40 0;
#X connect 21 0 22 0;
#X connect 22 0 44 0;
#X connect 22 0 43 0;
#X connect 23 0 37 0;
#X connect 24 0 25 1;
#X connect 25 0 21 0;
#X connect 26 0 18 0;
#X connect 27 0 26 1;
#X connect 28 0 4 0;
#X connect 29 0 26 0;
#X connect 30 0 27 0;
#X connect 31 0 11 0;
#X connect 32 0 33 0;
#X connect 34 0 32 0;
#X connect 34 0 60 0;
#X connect 34 0 35 0;
#X connect 36 0 59 1;
#X connect 37 0 24 1;
#X connect 38 0 59 0;
#X connect 39 0 38 0;
#X connect 40 0 56 0;
#X connect 41 0 55 0;
#X connect 42 0 28 0;
#X connect 42 0 29 0;
#X connect 43 0 45 1;
#X connect 44 0 45 0;
#X connect 45 0 29 0;
#X connect 46 0 45 2;
#X connect 47 0 49 1;
#X connect 48 0 49 0;
#X connect 49 0 28 0;
#X connect 50 0 46 0;
#X connect 50 0 58 0;
#X connect 51 0 49 2;
#X connect 51 0 57 0;
#X connect 52 0 1 0;
#X connect 52 1 12 0;
#X connect 52 1 10 0;
#X connect 53 0 5 0;
#X connect 54 0 19 0;
#X connect 55 0 28 0;
#X connect 56 0 29 0;
#X connect 57 0 24 0;
#X connect 58 0 16 0;
#X connect 59 0 17 0;
#X connect 59 0 25 0;
#X connect 59 0 2 0;
#X connect 59 0 53 0;
#X connect 59 0 54 0;
#X connect 60 0 36 0;
