#N canvas 1029 271 450 300 12;
#X obj 19 17 inlet;
#X obj 24 82 mtof;
#X obj 24 130 line~;
#X msg 24 106 \$1 5;
#X obj 24 43 list split 1;
#X obj 24 154 osc~;
#X obj 74 82 > 0;
#X obj 104 82 moses 1e-05;
#X obj 178 107 expr $f1/170+0.25;
#X obj 130 156 *~;
#X obj 24 178 *~;
#X obj 24 239 outlet~;
#X obj 74 132 else/adsr~ 34 0 0.99 400;
#X obj 24 215 else/drive~ 0;
#X obj 112 190 expr~ $v1*1+1;
#X obj 248 33 inlet;
#X obj 293 54 loadbang;
#X msg 293 78 200;
#X connect 0 0 4 0;
#X connect 1 0 3 0;
#X connect 2 0 5 0;
#X connect 3 0 2 0;
#X connect 4 0 1 0;
#X connect 4 1 6 0;
#X connect 4 1 7 0;
#X connect 5 0 10 0;
#X connect 6 0 12 0;
#X connect 7 1 8 0;
#X connect 8 0 9 1;
#X connect 9 0 10 1;
#X connect 10 0 13 0;
#X connect 12 0 9 0;
#X connect 12 0 14 0;
#X connect 13 0 11 0;
#X connect 14 0 13 1;
#X connect 15 0 12 4;
#X connect 16 0 17 0;
#X connect 17 0 12 4;
