#N canvas 356 436 1180 569 12;
#X obj 36 36 notein 1, f 10;
#X obj 36 61 poly 4, f 10;
#X obj 36 85 - 1;
#X obj 36 109 pack f f f;
#X obj 36 159 effects/pan-delay~;
#X floatatom 227 134 5 0 0 0 - - -;
#X obj 227 62 osc~ 0.12;
#X obj 227 110 snapshot~;
#X obj 163 38 loadbang;
#X obj 163 62 metro 50;
#X obj 144 39 bng 15 250 50 0 empty empty empty 17 7 0 10 -262144 -1
-1;
#X obj 306 110 notein 2;
#X obj 306 158 synths/sub-bass~;
#X obj 306 134 pack f f;
#X obj 227 86 expr~ 15*$v1+350;
#X obj 306 182 effects/stereo-haas~;
#X obj 36 183 else/free.rev~ 0.642 0.3425 0.25 0.35;
#X obj 36 133 clone synths/stereo-saw~ 6;
#X obj 518 168 osc~ 440;
#X obj 518 143 vline~, f 8;
#X obj 623 199 *~;
#X obj 641 168 vline~;
#X obj 584 143 noise~;
#X obj 584 168 vcf~ 1;
#X obj 518 37 notein 3;
#X obj 555 61 > 0;
#X obj 555 86 sel 1;
#X text 516 15 kick;
#X obj 518 61 mtof;
#X obj 600 86 s \$0-sidetrig;
#X obj 526 315 throw~ out-l;
#X obj 623 314 throw~ out-r;
#X msg 518 118 \$1 \, 50 100;
#X obj 623 225 hip~ 15;
#X obj 179 261 r \$0-sidetrig;
#X obj 147 322 throw~ out-l;
#X obj 240 322 throw~ out-r;
#X obj 29 436 dac~;
#X obj 29 406 catch~ out-l;
#X obj 125 406 catch~ out-r;
#X text 27 382 audio out;
#X obj 707 121 del 16;
#X msg 633 128 0 \, 0.95 15;
#X msg 707 145 0.95 \, 0 120;
#X obj 147 291 effects/duck~;
#X obj 892 46 pack 0 64;
#X obj 822 109 samplers/slice-sampler4~;
#X obj 822 157 effects/freeze~;
#X obj 1044 119 bng 15 250 50 0 empty empty empty 17 7 0 10 -262144
-1 -1;
#X obj 1044 95 sel 119;
#X obj 1044 187 tgl 15 0 empty empty empty 17 7 0 10 -262144 -1 -1
1 1;
#X msg 941 135 0;
#X obj 1022 24 notein 5;
#X obj 994 150 == 119;
#X obj 994 174 tgl 15 0 empty empty empty 17 7 0 10 -262144 -1 -1 0
1;
#X obj 998 235 *;
#X obj 1044 207 t b f;
#X obj 998 259 tgl 15 0 empty empty empty 17 7 0 10 -262144 -1 -1 0
1;
#X obj 1044 139 random 1;
#X obj 1044 163 == 0;
#X obj 892 21 notein 4;
#X msg 734 60 samples/drumkit.wav 0 0.1 0.2 0.3 0.4 0.5 0.6 0.7 0.8
0.9;
#X obj 733 11 loadbang;
#X obj 733 35 bng 15 250 50 0 empty empty empty 17 7 0 10 -262144 -1
-1;
#X obj 782 216 else/mono.rev~ 0.21 0.3 0.4 0.21;
#X msg 353 418 \; $swt normalize 1;
#X obj 342 512 table $swt;
#X obj 282 404 bng 15 250 50 0 empty empty empty 17 7 0 10 -262144
-1 -1;
#X obj 338 388 t b b;
#X obj 283 364 loadbang;
#X msg 343 459 \; $swt sinesum 2051 1 0.5333 0.265 0.25 0.015 0.10625
;
#X msg 209 522 \; $swt2 normalize 1;
#X obj 198 616 table $swt2;
#X msg 199 563 \; $swt2 sinesum 2051 1 0.5633 0.245 0.205 0.05 0.0625
;
#X connect 0 0 1 0;
#X connect 0 1 1 1;
#X connect 1 0 2 0;
#X connect 1 1 3 1;
#X connect 1 2 3 2;
#X connect 2 0 3 0;
#X connect 3 0 17 0;
#X connect 4 0 16 0;
#X connect 4 1 16 1;
#X connect 5 0 4 2;
#X connect 6 0 14 0;
#X connect 7 0 5 0;
#X connect 8 0 9 0;
#X connect 9 0 7 0;
#X connect 10 0 9 0;
#X connect 11 0 13 0;
#X connect 11 1 13 1;
#X connect 12 0 15 0;
#X connect 13 0 12 0;
#X connect 14 0 7 0;
#X connect 15 0 44 0;
#X connect 15 1 44 1;
#X connect 16 0 44 0;
#X connect 16 1 44 1;
#X connect 17 0 4 0;
#X connect 17 1 4 1;
#X connect 18 0 20 0;
#X connect 19 0 18 0;
#X connect 19 0 23 1;
#X connect 20 0 33 0;
#X connect 21 0 20 1;
#X connect 22 0 23 0;
#X connect 23 1 20 0;
#X connect 24 0 28 0;
#X connect 24 1 25 0;
#X connect 25 0 26 0;
#X connect 25 0 29 0;
#X connect 26 0 41 0;
#X connect 26 0 42 0;
#X connect 28 0 32 0;
#X connect 32 0 19 0;
#X connect 33 0 31 0;
#X connect 33 0 30 0;
#X connect 34 0 44 2;
#X connect 38 0 37 0;
#X connect 39 0 37 1;
#X connect 41 0 43 0;
#X connect 42 0 21 0;
#X connect 43 0 21 0;
#X connect 44 0 35 0;
#X connect 44 1 36 0;
#X connect 45 0 46 1;
#X connect 46 0 47 0;
#X connect 47 0 64 0;
#X connect 48 0 58 0;
#X connect 49 0 48 0;
#X connect 50 0 56 0;
#X connect 51 0 47 1;
#X connect 52 1 49 0;
#X connect 52 1 53 0;
#X connect 53 0 54 0;
#X connect 54 0 55 0;
#X connect 55 0 57 0;
#X connect 56 0 55 0;
#X connect 56 1 55 1;
#X connect 57 0 47 1;
#X connect 58 0 59 0;
#X connect 59 0 50 0;
#X connect 60 0 45 0;
#X connect 60 1 45 1;
#X connect 61 0 46 0;
#X connect 62 0 63 0;
#X connect 63 0 61 0;
#X connect 64 0 44 0;
#X connect 64 0 44 1;
#X connect 67 0 68 0;
#X connect 68 0 65 0;
#X connect 68 0 71 0;
#X connect 68 1 70 0;
#X connect 68 1 73 0;
#X connect 69 0 67 0;
