#N canvas 640 535 1025 475 12;
#X obj 18 118 load_preset;
#X obj 18 43 loadbang;
#X text 16 15 Preset File Loader;
#X obj 29 69 bng 15 250 50 0 empty empty empty 17 7 0 10 -262144 -1
-1;
#X msg 18 91 ./samplebank.txt;
#X obj 18 155 s wav;
#X obj 19 210 r wav;
#X obj 63 210 pack 0 64;
#X obj 19 235 oneshot~, f 13;
#X obj 63 185 notein 2;
#X obj 20 297 else/crusher~ 0.28 0.16;
#X obj 178 246 loadbang;
#X msg 178 271 0.0001;
#X msg 99 272 0.2341;
#X obj 63 155 s wav2;
#X obj 367 218 pack 0 64;
#X obj 367 193 notein 3;
#X obj 323 218 r wav2;
#X obj 564 216 pack 0 64;
#X obj 564 191 notein 4;
#X obj 520 216 r wav3;
#X obj 114 155 s wav3;
#X obj 323 243 singleshot~, f 13;
#X obj 520 241 singleshot~, f 13;
#X obj 20 342 outlet~;
#X connect 0 0 5 0;
#X connect 0 1 14 0;
#X connect 0 2 21 0;
#X connect 1 0 4 0;
#X connect 3 0 4 0;
#X connect 4 0 0 0;
#X connect 6 0 8 0;
#X connect 7 0 8 1;
#X connect 8 0 10 0;
#X connect 9 0 7 0;
#X connect 9 1 7 1;
#X connect 10 0 24 0;
#X connect 11 0 13 0;
#X connect 11 0 12 0;
#X connect 12 0 10 2;
#X connect 13 0 10 1;
#X connect 15 0 22 1;
#X connect 16 0 15 0;
#X connect 16 1 15 1;
#X connect 17 0 22 0;
#X connect 18 0 23 1;
#X connect 19 0 18 0;
#X connect 19 1 18 1;
#X connect 20 0 23 0;
#X connect 22 0 24 0;
#X connect 23 0 24 0;
