#N canvas 742 449 450 300 12;
#X obj 20 39 inlet~, f 7;
#X obj 80 39 inlet~, f 7;
#X obj 141 39 inlet;
#X obj 141 89 expr~ 1-$v1;
#X obj 141 64 else/adsr~ 5 0 0.5 20;
#X obj 20 129 *~;
#X obj 80 129 *~;
#X obj 80 153 outlet~;
#X obj 20 153 outlet~;
#X text 18 15 left;
#X text 78 16 right;
#X text 138 17 ducktrig;
#X connect 0 0 5 0;
#X connect 1 0 6 0;
#X connect 2 0 4 0;
#X connect 3 0 5 1;
#X connect 3 0 6 1;
#X connect 4 0 3 0;
#X connect 5 0 8 0;
#X connect 6 0 7 0;
