#N canvas 682 230 862 610 12;
#X msg 64 73 0;
#X obj 14 73 until;
#X obj 14 102 f;
#X obj 50 102 + 1;
#X obj 14 130 moses 4;
#X obj 86 104 bng 15 250 50 0 empty empty empty 17 7 0 10 -262144 -1
-1;
#X msg 102 73 rewind;
#X obj 14 186 textfile;
#X obj 14 158 t b f;
#X obj 14 265 spigot;
#X obj 116 265 spigot;
#X obj 155 240 == 1;
#X obj 53 240 == 0;
#X obj 226 266 spigot;
#X obj 265 241 == 2;
#X obj 345 267 spigot;
#X obj 384 242 == 3;
#X obj 14 15 inlet;
#X msg 187 98 read \$1 cr;
#X obj 187 73 pack s;
#X obj 14 44 t b b a b;
#X obj 14 289 outlet;
#X obj 116 289 outlet;
#X obj 226 290 outlet;
#X obj 345 291 outlet;
#X connect 0 0 2 1;
#X connect 1 0 2 0;
#X connect 2 0 3 0;
#X connect 2 0 4 0;
#X connect 3 0 2 1;
#X connect 4 0 8 0;
#X connect 4 1 5 0;
#X connect 5 0 1 1;
#X connect 6 0 7 0;
#X connect 7 0 9 0;
#X connect 7 0 10 0;
#X connect 7 0 13 0;
#X connect 7 0 15 0;
#X connect 8 0 7 0;
#X connect 8 1 12 0;
#X connect 8 1 16 0;
#X connect 8 1 14 0;
#X connect 8 1 11 0;
#X connect 9 0 21 0;
#X connect 10 0 22 0;
#X connect 11 0 10 1;
#X connect 12 0 9 1;
#X connect 13 0 23 0;
#X connect 14 0 13 1;
#X connect 15 0 24 0;
#X connect 16 0 15 1;
#X connect 17 0 20 0;
#X connect 18 0 7 0;
#X connect 19 0 18 0;
#X connect 20 0 1 0;
#X connect 20 1 6 0;
#X connect 20 2 19 0;
#X connect 20 3 0 0;
