#N canvas 0 23 867 735 12;
#X obj 25 467 dac~;
#X obj 25 437 catch~ out-l;
#X obj 121 437 catch~ out-r;
#X text 23 413 audio out;
#N canvas 0 23 450 300 midithru8 0;
#X obj 18 66 noteout 1;
#X obj 91 66 noteout 2;
#X obj 163 66 noteout 3;
#X obj 236 66 noteout 4;
#X text 16 18 midi passthru;
#X obj 18 41 notein 1, f 9;
#X obj 91 41 notein 2, f 9;
#X obj 163 41 notein 3, f 9;
#X obj 235 41 notein 4, f 9;
#X obj 18 91 notein 5, f 9;
#X obj 91 91 notein 6, f 9;
#X obj 163 91 notein 7, f 9;
#X obj 236 91 notein 8, f 9;
#X obj 18 116 noteout 5;
#X obj 91 116 noteout 6;
#X obj 163 116 noteout 7;
#X obj 236 116 noteout 8;
#X connect 5 0 0 0;
#X connect 5 1 0 1;
#X connect 6 0 1 0;
#X connect 6 1 1 1;
#X connect 7 0 2 0;
#X connect 7 1 2 1;
#X connect 8 0 3 0;
#X connect 8 1 3 1;
#X connect 9 0 13 0;
#X connect 9 1 13 1;
#X connect 10 0 14 0;
#X connect 10 1 14 1;
#X connect 11 0 15 0;
#X connect 11 1 15 1;
#X connect 12 0 16 0;
#X connect 12 1 16 1;
#X restore 28 40 pd midithru8;
#X text 27 17 midi passthru ch 1-8;
#X obj 210 189 osc~ 440;
#X obj 210 164 vline~, f 8;
#X obj 315 218 *~;
#X obj 333 188 vline~;
#X obj 276 164 noise~;
#X obj 276 189 vcf~ 1;
#X obj 247 64 > 0;
#X obj 247 89 sel 1;
#X text 208 18 kick;
#X obj 210 64 mtof;
#X obj 292 89 s \$0-sidetrig;
#X obj 315 276 throw~ out-r;
#X msg 210 139 \$1 \, 50 100;
#X obj 315 244 hip~ 15;
#X obj 342 140 del 16;
#X msg 333 114 0 \, 0.95 15;
#X msg 342 164 0.95 \, 0 120;
#X obj 109 327 r \$0-sidetrig;
#X obj 22 380 throw~ out-l;
#X obj 115 380 throw~ out-r;
#X obj 21 353 effects/duck~;
#X msg 649 52 \; pd dsp 1;
#X obj 649 24 loadbang;
#X obj 210 40 notein 9;
#X msg 467 58 1;
#X obj 515 57 del 20;
#X msg 515 81 0;
#X obj 465 30 bng 15 250 50 0 empty empty empty 17 7 0 10 -262144 -1
-1;
#X msg 355 37 54;
#X obj 530 140 pack 0 64;
#X obj 449 190 samplers/slice-sampler4~;
#X obj 449 215 effects/freeze~;
#X obj 449 118 loadbang;
#X obj 449 142 bng 15 250 50 0 empty empty empty 17 7 0 10 -262144
-1 -1;
#X msg 449 164 samples/kit2.wav 0 0.1 0.2 0.3 0.4 0.5 0.6 0.7 0.8 0.9
;
#X obj 663 139 > 1;
#X obj 530 115 notein 10;
#X obj 603 115 notein 11;
#X obj 425 266 expr~ $v1*$f3+$v2*(1-$f3);
#X msg 582 238 0.5;
#X obj 582 214 loadbang;
#X msg 634 241 0;
#X obj 20 224 adc~;
#X obj 20 266 else/chorus~ 0.5 5 0.8;
#X floatatom 710 137 5 0 0 0 - - -;
#X msg 697 198;
#X connect 1 0 0 0;
#X connect 2 0 0 1;
#X connect 6 0 8 0;
#X connect 7 0 6 0;
#X connect 7 0 11 1;
#X connect 8 0 19 0;
#X connect 9 0 8 1;
#X connect 10 0 11 0;
#X connect 11 1 8 0;
#X connect 12 0 13 0;
#X connect 12 0 16 0;
#X connect 13 0 20 0;
#X connect 13 0 21 0;
#X connect 15 0 18 0;
#X connect 18 0 7 0;
#X connect 19 0 17 0;
#X connect 20 0 22 0;
#X connect 21 0 9 0;
#X connect 22 0 9 0;
#X connect 23 0 26 2;
#X connect 26 0 24 0;
#X connect 26 1 25 0;
#X connect 28 0 27 0;
#X connect 29 0 15 0;
#X connect 29 1 12 0;
#X connect 30 0 12 0;
#X connect 31 0 32 0;
#X connect 32 0 12 0;
#X connect 33 0 30 0;
#X connect 33 0 31 0;
#X connect 33 0 34 0;
#X connect 34 0 15 0;
#X connect 35 0 36 1;
#X connect 36 0 37 0;
#X connect 36 0 44 0;
#X connect 37 0 44 1;
#X connect 38 0 39 0;
#X connect 39 0 40 0;
#X connect 40 0 36 0;
#X connect 41 0 37 1;
#X connect 41 0 50 0;
#X connect 42 0 35 0;
#X connect 42 1 35 1;
#X connect 43 1 41 0;
#X connect 44 0 26 1;
#X connect 45 0 44 2;
#X connect 46 0 45 0;
#X connect 47 0 44 2;
#X connect 48 0 49 0;
#X connect 49 0 26 0;
