#N canvas 824 414 856 575 12;
#X obj 38 33 notein;
#X obj 38 67 poly 6;
#X obj 38 111 - 1;
#X obj 38 135 pack f f f;
#X obj 208 100 table sawtooth;
#X obj 208 21 loadbang;
#X msg 208 47 \; sawtooth sinesum 2051 1 0.5 0.333333 0.25 0.2 0.166667
0.142857 0.125 0.111111 0.1 0.090909 0.0833333;
#X msg 610 46 \; sawtooth normalize 1;
#X obj 38 214 *~ 0.16;
#X floatatom 266 160 5 0 0 0 - - -;
#X obj 266 187 s spread;
#X obj 37 456 dac~;
#X obj 64 339 else/ping.pong~ 500 0.27;
#X obj 372 142 loadbang;
#X msg 372 166 1;
#X obj 372 190 metro 250;
#X obj 37 432 else/free.rev~ 0.4 0.5 0.5 0.25;
#X obj 464 218 s release;
#X floatatom 464 190 5 0 0 0 - - -;
#X msg 510 189 250;
#X msg 547 188 500;
#X obj 21 370 *~ 0.75;
#X obj 98 369 *~ 0.25;
#X obj 237 372 *~ 0.25;
#X obj 65 274 else/lowpass~ 6000 0.1;
#X obj 372 214 random 60;
#X obj 179 234 +~ 4000;
#X obj 179 209 *~ 1000;
#X obj 179 186 osc~ 0.05;
#X obj 372 262 + 0.15;
#X msg 372 286 size \$1;
#X obj 372 238 / 100;
#X obj 38 183 clone ultvoice 6;
#X connect 0 0 1 0;
#X connect 0 1 1 1;
#X connect 1 0 2 0;
#X connect 1 1 3 1;
#X connect 1 2 3 2;
#X connect 2 0 3 0;
#X connect 3 0 32 0;
#X connect 5 0 6 0;
#X connect 5 0 7 0;
#X connect 8 0 24 0;
#X connect 9 0 10 0;
#X connect 12 0 22 0;
#X connect 12 1 23 0;
#X connect 13 0 14 0;
#X connect 13 0 19 0;
#X connect 14 0 15 0;
#X connect 15 0 25 0;
#X connect 16 0 11 0;
#X connect 16 1 11 1;
#X connect 18 0 17 0;
#X connect 19 0 17 0;
#X connect 20 0 17 0;
#X connect 21 0 16 0;
#X connect 21 0 16 1;
#X connect 22 0 16 0;
#X connect 23 0 16 1;
#X connect 24 0 12 0;
#X connect 24 0 21 0;
#X connect 25 0 9 0;
#X connect 25 0 31 0;
#X connect 26 0 24 1;
#X connect 27 0 26 0;
#X connect 28 0 27 0;
#X connect 29 0 30 0;
#X connect 30 0 16 2;
#X connect 31 0 29 0;
#X connect 32 0 8 0;
