#N canvas 195 27 1485 1001 12;
#X obj 695 259 loadbang;
#X obj 26 24 notein 1;
#N canvas 616 474 450 300 effectbus~ 0;
#X obj 19 22 inlet~;
#X obj 18 156 outlet~;
#X obj 281 156 outlet~;
#X obj 59 86 pandel~;
#X obj 18 132 else/free.rev~ 0.442 0.6425 0.525 0.25;
#X obj 207 31 inlet;
#X msg 143 49 500;
#X obj 144 22 loadbang;
#X obj 70 22 inlet~;
#X connect 0 0 3 0;
#X connect 3 0 4 0;
#X connect 3 1 4 1;
#X connect 4 0 1 0;
#X connect 4 1 2 0;
#X connect 5 0 3 2;
#X connect 6 0 3 2;
#X connect 7 0 6 0;
#X connect 8 0 3 1;
#X restore 66 442 pd effectbus~;
#N canvas 524 423 859 400 inst2~ 0;
#X obj 20 89 osc~;
#X obj 20 56 mtof;
#X obj 65 89 * 0.994;
#X obj 65 113 phasor~;
#X obj 65 137 *~ 2051;
#X obj 19 278 vcf~ 1, f 14;
#X floatatom 232 137 5 0 0 0 - - -;
#X obj 214 163 * 1;
#X obj 66 253 *~;
#X obj 172 247 > 0;
#X obj 172 295 *~;
#X obj 190 220 moses 1e-05;
#X obj 264 245 expr $f1/170+0.25;
#X obj 172 271 else/adsr~ 25 0 0.9 50;
#X floatatom 123 242 5 0 0 0 - - -;
#X msg 232 112 8;
#X obj 232 88 loadbang;
#X obj 225 245 > 0;
#X obj 18 335 outlet~;
#X obj 20 27 inlet;
#X obj 210 32 inlet;
#X obj 268 34 inlet;
#X obj 338 33 inlet;
#X obj 65 161 tabread4~ swt;
#X msg 126 211 5;
#X obj 18 311 *~ 0.8;
#X connect 0 0 5 0;
#X connect 1 0 0 0;
#X connect 1 0 2 0;
#X connect 1 0 7 0;
#X connect 2 0 3 0;
#X connect 3 0 4 0;
#X connect 4 0 23 0;
#X connect 5 0 25 0;
#X connect 6 0 7 1;
#X connect 7 0 8 1;
#X connect 8 0 5 1;
#X connect 9 0 13 0;
#X connect 10 0 8 0;
#X connect 11 1 12 0;
#X connect 12 0 10 1;
#X connect 13 0 10 0;
#X connect 14 0 5 2;
#X connect 15 0 6 0;
#X connect 16 0 15 0;
#X connect 16 0 24 0;
#X connect 19 0 1 0;
#X connect 20 0 11 0;
#X connect 20 0 9 0;
#X connect 21 0 6 0;
#X connect 22 0 14 0;
#X connect 23 0 5 0;
#X connect 24 0 14 0;
#X connect 25 0 18 0;
#X restore 97 118 pd inst2~;
#X obj 97 24 notein 2, f 9;
#X obj 1096 136 snapshot~;
#X msg 1163 83 1;
#X obj 1163 57 loadbang;
#X obj 1096 108 osc~ 0.1;
#X msg 705 286 \; swt normalize 1;
#X msg 695 327 \; swt sinesum 2051 1 0.5 0.333333 0.25 0.2 0.166667
0.142857 0.125 0.111111 0.1 0.090909 0.0833333;
#X obj 695 380 table swt;
#X obj 26 50 wobsaw~, f 8;
#X obj 1163 108 metro 200;
#X obj 107 348 notegate~;
#X obj 126 302 notein 4;
#X obj 475 190 osc~ 440;
#X obj 475 165 vline~, f 8;
#X obj 580 221 *~;
#X obj 593 190 vline~;
#X obj 541 165 noise~;
#X obj 541 190 vcf~ 1;
#X obj 475 59 notein 3;
#X obj 512 83 > 0;
#X obj 512 108 sel 1;
#X obj 580 247 hip~ 5;
#X obj 782 111 midirealtimein;
#X obj 782 162 sel 248;
#X obj 782 188 cyclone/counter 24;
#X obj 782 213 sel 0;
#X obj 782 238 bng 15 250 50 0 empty empty empty 17 7 0 10 -262144
-1 -1;
#X text 167 420 sidechain;
#X text 473 37 kick;
#X obj 791 137 midiout;
#X obj 782 83 noteout 1;
#X obj 855 83 noteout 2;
#X obj 782 58 notein 6, f 9;
#X obj 855 58 notein 7, f 9;
#X obj 927 58 notein 8, f 9;
#X obj 927 83 noteout 3;
#X obj 1000 83 noteout 4;
#X obj 1000 58 notein 9, f 9;
#X text 780 35 midi passthru;
#X obj 475 83 mtof;
#X obj 124 394 adc~;
#X obj 17 303 else/crusher~;
#X obj 45 217 notein 5;
#X obj 61 278 / 127;
#X obj 695 485 dac~;
#X msg 695 69 \; pd dsp 1;
#X obj 695 41 loadbang;
#X obj 782 258 s \$0-clk;
#X obj 557 108 s \$0-sidetrig;
#X obj 170 441 r \$0-sidetrig;
#X obj 138 470 duck~;
#X obj 483 337 throw~ out-l;
#X obj 580 336 throw~ out-r;
#X obj 695 455 catch~ out-l;
#X obj 791 455 catch~ out-r;
#X obj 138 502 throw~ out-l;
#X obj 231 502 throw~ out-r;
#X text 693 431 audio out;
#X text 1160 32 stepped lfo;
#X obj 857 260 timer, f 11;
#X obj 857 235 t b b;
#X obj 857 284 s \$0-spb;
#X obj 1095 59 r \$0-spb;
#X obj 1096 83 / 4000;
#X obj 1096 160 s \$0-steplfo;
#X obj 158 64 r \$0-steplfo;
#X obj 195 276 r \$0-steplfo;
#X obj 158 89 expr $f1*3+3.5;
#X obj 195 302 expr $f1*30+40;
#X obj 176 382 r \$0-spb;
#X msg 593 165 0.9 \, 0 80;
#X msg 475 140 \$1 \, 50 100;
#X obj 45 241 - 24;
#X connect 0 0 10 0;
#X connect 0 0 9 0;
#X connect 1 0 12 0;
#X connect 1 1 12 1;
#X connect 2 0 54 0;
#X connect 2 1 54 1;
#X connect 3 0 14 0;
#X connect 4 0 3 0;
#X connect 4 1 3 1;
#X connect 5 0 68 0;
#X connect 6 0 13 0;
#X connect 7 0 6 0;
#X connect 8 0 5 0;
#X connect 12 0 45 0;
#X connect 13 0 5 0;
#X connect 14 0 2 0;
#X connect 14 0 2 1;
#X connect 15 0 14 1;
#X connect 15 1 14 2;
#X connect 16 0 18 0;
#X connect 17 0 16 0;
#X connect 17 0 21 1;
#X connect 18 0 25 0;
#X connect 19 0 18 1;
#X connect 20 0 21 0;
#X connect 21 1 18 0;
#X connect 22 0 43 0;
#X connect 22 1 23 0;
#X connect 23 0 24 0;
#X connect 23 0 52 0;
#X connect 24 0 74 0;
#X connect 25 0 56 0;
#X connect 25 0 55 0;
#X connect 26 0 27 0;
#X connect 26 0 33 0;
#X connect 27 0 28 0;
#X connect 28 0 29 0;
#X connect 29 0 30 0;
#X connect 30 0 51 0;
#X connect 30 0 64 0;
#X connect 36 0 34 0;
#X connect 36 1 34 1;
#X connect 37 0 35 0;
#X connect 37 1 35 1;
#X connect 38 0 39 0;
#X connect 38 1 39 1;
#X connect 41 0 40 0;
#X connect 41 1 40 1;
#X connect 43 0 75 0;
#X connect 44 0 2 0;
#X connect 44 1 2 1;
#X connect 45 0 14 0;
#X connect 46 0 76 0;
#X connect 47 0 45 1;
#X connect 50 0 49 0;
#X connect 53 0 54 2;
#X connect 54 0 59 0;
#X connect 54 1 60 0;
#X connect 57 0 48 0;
#X connect 58 0 48 1;
#X connect 63 0 65 0;
#X connect 64 0 63 0;
#X connect 64 1 63 1;
#X connect 66 0 67 0;
#X connect 67 0 8 0;
#X connect 69 0 71 0;
#X connect 70 0 72 0;
#X connect 71 0 3 2;
#X connect 72 0 14 3;
#X connect 73 0 2 2;
#X connect 74 0 19 0;
#X connect 75 0 17 0;
#X connect 76 0 47 0;
