#N canvas 739 104 682 526 12;
#X obj 20 19 inlet;
#X obj 80 224 inlet;
#X obj 20 45 mtof;
#X obj 20 142 phasor~;
#X obj 20 168 *~ 2051;
#X obj 20 351 *~;
#X obj 20 324 *~ 0.25;
#X obj 123 92 sig~;
#X obj 123 142 phasor~;
#X obj 123 168 *~ 2051;
#X obj 123 117 *~ 0.661;
#X obj 225 93 sig~;
#X obj 225 143 phasor~;
#X obj 225 168 *~ 2051;
#X obj 20 375 outlet~;
#X obj 80 276 > 0;
#X obj 80 324 *~;
#X obj 98 249 moses 1e-05;
#X obj 172 274 expr $f1/170+0.25;
#X obj 80 300 else/adsr~ 20 0 0.9 500;
#X obj 123 194 tabread4~ swt;
#X obj 225 194 tabread4~ swt;
#X obj 20 194 tabread4~ swt;
#X msg 330 68 0.992;
#X obj 330 44 loadbang;
#X obj 263 92 +~;
#X obj 225 118 *~;
#X obj 263 44 osc~ 1;
#X obj 263 68 *~ 0.006;
#X connect 0 0 2 0;
#X connect 1 0 15 0;
#X connect 1 0 17 0;
#X connect 2 0 3 0;
#X connect 2 0 7 0;
#X connect 2 0 11 0;
#X connect 3 0 4 0;
#X connect 4 0 22 0;
#X connect 5 0 14 0;
#X connect 6 0 5 0;
#X connect 7 0 10 0;
#X connect 8 0 9 0;
#X connect 9 0 20 0;
#X connect 10 0 8 0;
#X connect 11 0 26 0;
#X connect 12 0 13 0;
#X connect 13 0 21 0;
#X connect 15 0 19 0;
#X connect 16 0 5 1;
#X connect 17 1 18 0;
#X connect 18 0 16 1;
#X connect 19 0 16 0;
#X connect 20 0 6 0;
#X connect 21 0 6 0;
#X connect 22 0 6 0;
#X connect 23 0 25 1;
#X connect 24 0 23 0;
#X connect 25 0 26 1;
#X connect 26 0 12 0;
#X connect 27 0 28 0;
#X connect 28 0 25 0;
