#N canvas -802 460 450 401 12;
#X obj 14 89 soundfiler;
#X obj 339 20 table \$0-buf;
#X obj 14 39 pack s \$0;
#X msg 34 65 read -resize \$1 \$2-buf;
#X obj 14 14 inlet;
#X obj 14 114 s \$0-s;
#X obj 123 109 r \$0-s;
#X text 155 175 samps(end-start)/sr;
#X obj 202 41 t b f;
#X obj 202 64 f 0;
#X floatatom 23 267 10 0 0 0 - - -;
#X obj 121 220 phasor~;
#X obj 81 131 inlet;
#X obj 316 159 s \$0-str;
#X obj 266 64 f 1;
#X obj 266 41 t b f;
#X obj 202 18 inlet;
#X obj 266 18 inlet;
#X obj 121 266 +~;
#X obj 121 290 *~;
#X obj 150 266 r \$0-s;
#X obj 121 314 tabread4~ \$0-buf;
#X msg 167 197 0, f 1;
#X obj 84 344 *~;
#X obj 84 368 outlet~;
#X obj 130 27 print;
#X floatatom 167 290 10 0 0 0 - - -;
#X msg 289 112 0, f 1;
#X msg 368 110 1, f 1;
#X obj 321 87 bng 15 250 50 0 empty empty empty 17 7 0 10 -262144 -1
-1;
#X obj 199 125 line~;
#X obj 386 177 line~;
#X obj 24 239 snapshot~;
#X obj 17 207 metro 100;
#X obj 20 179 tgl 15 0 empty empty empty 17 7 0 10 -262144 -1 -1 1
1;
#X obj 127 156 expr~ 44100/($f3*($v2-$v1));
#X obj 213 218 expr~ $v2-$v1;
#X obj 121 244 *~;
#X obj 200 98 pack 0 0;
#X obj 388 150 pack 0 0;
#X connect 0 0 5 0;
#X connect 2 0 3 0;
#X connect 2 0 25 0;
#X connect 3 0 0 0;
#X connect 4 0 2 0;
#X connect 6 0 35 2;
#X connect 8 0 9 0;
#X connect 8 1 9 1;
#X connect 9 0 13 0;
#X connect 9 0 38 0;
#X connect 11 0 37 0;
#X connect 12 0 22 0;
#X connect 12 0 23 1;
#X connect 14 0 39 0;
#X connect 15 0 14 0;
#X connect 15 1 14 1;
#X connect 16 0 8 0;
#X connect 17 0 15 0;
#X connect 18 0 19 0;
#X connect 19 0 21 0;
#X connect 20 0 19 1;
#X connect 20 0 26 0;
#X connect 21 0 23 0;
#X connect 22 0 11 1;
#X connect 23 0 24 0;
#X connect 27 0 38 0;
#X connect 28 0 39 0;
#X connect 29 0 28 0;
#X connect 29 0 27 0;
#X connect 30 0 18 1;
#X connect 30 0 35 0;
#X connect 30 0 36 0;
#X connect 31 0 35 1;
#X connect 31 0 36 1;
#X connect 32 0 10 0;
#X connect 33 0 32 0;
#X connect 34 0 33 0;
#X connect 35 0 11 0;
#X connect 35 0 32 0;
#X connect 36 0 37 1;
#X connect 37 0 18 0;
#X connect 38 0 30 0;
#X connect 39 0 31 0;
