#N canvas 1008 314 872 821 12;
#X obj 32 147 soundfiler;
#X obj 156 22 table \$0-buf;
#X obj 32 84 pack s \$0;
#X msg 32 115 read -resize \$1 \$2-buf;
#X obj 32 180 s \$0-samples;
#X obj 33 461 outlet~;
#X obj 24 26 inlet;
#X obj 42 54 list split 1;
#X obj 121 84 s \$0-args;
#X obj 32 365 tabread4~ \$0-buf;
#X obj 72 288 r \$0-samples;
#X obj 92 313 r \$0-args;
#X obj 484 157 inlet;
#X obj 274 181 pack f f f;
#X obj 274 206 route 1 2 3 4;
#X obj 180 365 tabread4~ \$0-buf;
#X obj 220 288 r \$0-samples;
#X obj 240 313 r \$0-args;
#X obj 344 365 tabread4~ \$0-buf;
#X obj 384 288 r \$0-samples;
#X obj 404 313 r \$0-args;
#X obj 506 366 tabread4~ \$0-buf;
#X obj 546 289 r \$0-samples;
#X obj 566 314 r \$0-args;
#X obj 273 114 inlet;
#X obj 32 417 lop~ 3000;
#X obj 32 393 hip~ 50;
#X obj 274 144 poly 4;
#X obj 32 339 slice-marker~;
#X obj 180 339 slice-marker~;
#X obj 344 339 slice-marker~;
#X obj 506 340 slice-marker~;
#X connect 0 0 4 0;
#X connect 2 0 3 0;
#X connect 3 0 0 0;
#X connect 6 0 7 0;
#X connect 7 0 2 0;
#X connect 7 1 8 0;
#X connect 9 0 26 0;
#X connect 10 0 28 2;
#X connect 11 0 28 3;
#X connect 12 0 28 1;
#X connect 12 0 29 1;
#X connect 12 0 30 1;
#X connect 12 0 31 1;
#X connect 13 0 14 0;
#X connect 14 0 28 0;
#X connect 14 1 29 0;
#X connect 14 2 30 0;
#X connect 14 3 31 0;
#X connect 15 0 26 0;
#X connect 16 0 29 2;
#X connect 17 0 29 3;
#X connect 18 0 26 0;
#X connect 19 0 30 2;
#X connect 20 0 30 3;
#X connect 21 0 26 0;
#X connect 22 0 31 2;
#X connect 23 0 31 3;
#X connect 24 0 27 0;
#X connect 25 0 5 0;
#X connect 26 0 25 0;
#X connect 27 0 13 0;
#X connect 27 1 13 1;
#X connect 27 2 13 2;
#X connect 28 0 9 0;
#X connect 29 0 15 0;
#X connect 30 0 18 0;
#X connect 31 0 21 0;
