#N canvas 384 240 785 801 12;
#X obj 513 196 inlet;
#X text 340 195 start;
#X text 558 197 speed?;
#X text 206 317 (sEnd - sStart) * sr / 44.1;
#X text 448 196 end;
#X obj 193 293 expr $f1*($f3-$f2)/(44.1*$f4);
#X obj 514 247 f 1;
#X obj 513 220 t b f;
#X obj 404 249 f 1;
#X obj 403 222 t b f;
#X obj 295 220 t b f;
#X obj 295 248 f 0;
#X obj 508 146 loadbang;
#X obj 365 53 mod;
#X obj 406 81 + 1;
#X obj 406 107 moses;
#X msg 438 133 1;
#X obj 328 133 tabread \$0-pos;
#X floatatom 403 165 5 0 0 0 - - -;
#X obj 296 79 tabread \$0-pos;
#X floatatom 296 106 5 0 0 0 - - -;
#X obj 432 292 expr $f2 - $f1;
#X obj 20 21 table \$0-pos;
#X obj 619 387 s \$0-pos;
#X msg 619 361 resize \$1;
#X obj 607 309 list prepend;
#X obj 688 259 loadbang;
#X obj 619 335 list length;
#X msg 688 284 0;
#X text 586 257 load markers;
#X obj 688 387 s \$0-len;
#X obj 439 26 r \$0-len;
#X obj 607 284 inlet;
#X obj 193 248 r \$0-samples;
#X obj 558 30 inlet;
#X obj 558 54 s \$0-samples;
#X obj 34 484 *~;
#X obj 78 453 r \$0-samples;
#X obj 61 134 tgl 15 0 empty empty empty 17 7 0 10 -262144 -1 -1 0
1;
#X obj 55 387 line~;
#X obj 21 158 sel 1;
#X obj 33 270 t b b;
#X obj 94 332 f;
#X obj 34 426 +~;
#X obj 34 508 outlet~;
#X obj 21 60 inlet;
#X obj 21 84 list split 1;
#X obj 61 109 > 0;
#X obj 101 238 sel 0;
#X obj 94 363 pack 1 30;
#X obj 94 304 delay 5;
#X obj 34 455 *~ 1;
#X msg 55 339 0 0;
#X connect 0 0 7 0;
#X connect 5 0 49 1;
#X connect 6 0 5 3;
#X connect 7 0 6 0;
#X connect 7 1 6 1;
#X connect 8 0 5 2;
#X connect 8 0 21 1;
#X connect 9 0 8 0;
#X connect 9 1 8 1;
#X connect 10 0 11 0;
#X connect 10 1 11 1;
#X connect 11 0 5 1;
#X connect 11 0 21 0;
#X connect 11 0 43 1;
#X connect 12 0 6 0;
#X connect 12 0 8 0;
#X connect 12 0 11 0;
#X connect 13 0 14 0;
#X connect 13 0 19 0;
#X connect 14 0 15 0;
#X connect 15 0 17 0;
#X connect 15 1 16 0;
#X connect 16 0 18 0;
#X connect 17 0 18 0;
#X connect 18 0 9 0;
#X connect 19 0 20 0;
#X connect 20 0 10 0;
#X connect 21 0 42 1;
#X connect 24 0 23 0;
#X connect 25 0 23 0;
#X connect 26 0 28 0;
#X connect 27 0 24 0;
#X connect 27 0 30 0;
#X connect 28 0 25 1;
#X connect 31 0 13 1;
#X connect 31 0 15 1;
#X connect 32 0 27 0;
#X connect 32 0 25 0;
#X connect 33 0 5 0;
#X connect 34 0 35 0;
#X connect 36 0 44 0;
#X connect 37 0 36 1;
#X connect 38 0 40 0;
#X connect 38 0 48 0;
#X connect 39 0 43 0;
#X connect 40 0 41 0;
#X connect 41 0 50 0;
#X connect 41 1 5 0;
#X connect 41 1 52 0;
#X connect 42 0 49 0;
#X connect 43 0 51 0;
#X connect 45 0 46 0;
#X connect 46 0 13 0;
#X connect 46 1 47 0;
#X connect 47 0 38 0;
#X connect 49 0 39 0;
#X connect 50 0 42 0;
#X connect 51 0 36 0;
#X connect 52 0 39 0;
