#N canvas 190 482 1025 475 12;
#X obj 18 43 loadbang;
#X text 16 15 Preset File Loader;
#X obj 29 69 bng 15 250 50 0 empty empty empty 17 7 0 10 -262144 -1
-1;
#X obj 18 155 s wav;
#X obj 202 44 r wav;
#X obj 246 44 pack 0 64;
#X obj 63 155 s wav2;
#X obj 114 155 s wav3;
#X obj 202 69 samplers/slice-sampler~;
#X obj 424 44 pack 0 64;
#X obj 424 19 notein 2;
#X obj 372 69 samplers/slice-sampler~;
#X obj 373 44 r wav2;
#X obj 246 19 notein 1;
#X obj 593 44 pack 0 64;
#X obj 542 69 samplers/slice-sampler~;
#X obj 542 44 r wav3;
#X obj 593 19 notein 3;
#X obj 360 152 dac~;
#X obj 372 113 *~ 0.75;
#X obj 18 118 utils/load_preset;
#X msg 18 91 examples/samplebank.txt;
#X connect 0 0 21 0;
#X connect 2 0 21 0;
#X connect 4 0 8 0;
#X connect 5 0 8 1;
#X connect 8 0 19 0;
#X connect 9 0 11 1;
#X connect 10 0 9 0;
#X connect 10 1 9 1;
#X connect 11 0 19 0;
#X connect 12 0 11 0;
#X connect 13 0 5 0;
#X connect 13 1 5 1;
#X connect 14 0 15 1;
#X connect 15 0 19 0;
#X connect 16 0 15 0;
#X connect 17 0 14 0;
#X connect 17 1 14 1;
#X connect 19 0 18 0;
#X connect 19 0 18 1;
#X connect 20 0 3 0;
#X connect 20 1 6 0;
#X connect 20 2 7 0;
#X connect 21 0 20 0;
