#N canvas 594 96 1031 555 12;
#X obj 18 43 loadbang;
#X text 16 15 Preset File Loader;
#X obj 29 69 bng 15 250 50 0 empty empty empty 17 7 0 10 -262144 -1
-1;
#X obj 18 155 s wav;
#X obj 634 302 pack 0 64;
#X obj 63 155 s wav2;
#X obj 114 155 s wav3;
#X obj 467 3 notein 2;
#X obj 650 202 pack 0 64;
#X obj 650 177 notein 3;
#X obj 360 152 dac~;
#X obj 372 113 *~ 0.75;
#X obj 18 118 utils/load_preset;
#X msg 18 91 examples/samplebank.txt;
#X obj 564 365 samplers/slice-sampler4~;
#X obj 599 227 samplers/slice-sampler4~;
#X obj 372 69 samplers/loop-sampler~;
#X obj 364 33 list split 1;
#X obj 498 31 > 0;
#X obj 465 40 tgl 15 0 empty empty empty 17 7 0 10 -262144 -1 -1 1
1;
#X floatatom 698 85 5 0 0 0 - - -;
#X floatatom 744 86 5 0 0 0 - - -;
#X msg 827 94 60;
#X msg 601 53 20;
#X msg 647 46 50;
#X msg 795 66 55;
#X msg 832 43 52;
#X msg 683 48 56;
#X msg 728 45 59.2;
#X obj 834 180 random 50;
#X obj 883 105 tgl 15 0 empty empty empty 17 7 0 10 -262144 -1 -1 0
1;
#X obj 872 281 +;
#X obj 914 204 / 100;
#X obj 914 180 random 1000;
#X obj 911 252 + 0.15;
#X obj 855 139 metro 250;
#X obj 540 43 sel 1;
#X obj 563 412 effects/freeze~;
#X obj 786 375 bng 15 250 50 0 empty empty empty 17 7 0 10 -262144
-1 -1;
#X obj 786 351 sel 119;
#X obj 786 443 tgl 15 0 empty empty empty 17 7 0 10 -262144 -1 -1 1
1;
#X msg 683 391 0;
#X obj 764 280 notein 5;
#X obj 736 406 == 119;
#X obj 736 430 tgl 15 0 empty empty empty 17 7 0 10 -262144 -1 -1 0
1;
#X obj 740 491 *;
#X obj 786 463 t b f;
#X obj 740 515 tgl 15 0 empty empty empty 17 7 0 10 -262144 -1 -1 0
1;
#X obj 786 395 random 1;
#X obj 786 419 == 0;
#X obj 698 145 / 100;
#X obj 744 146 / 100;
#X obj 252 309 else/mono.rev~;
#X msg 262 269 room \$1;
#X obj 382 255 loadbang;
#X floatatom 258 185 5 0 0 0 - - -;
#X obj 258 208 / 100;
#X msg 385 281 wet 0;
#X obj 452 253 bng 15 250 50 0 empty empty empty 17 7 0 10 -262144
-1 -1;
#X msg 452 273 wet 0.5;
#X obj 515 278 del 500;
#X msg 329 267 wet \$1;
#X floatatom 334 193 5 0 0 0 - - -;
#X obj 334 216 / 100;
#X floatatom 189 194 5 0 0 0 - - -;
#X obj 189 217 / 100;
#X msg 184 268 decay \$1;
#X obj 207 90 snapshot~;
#X obj 264 53 metro 20;
#X obj 263 22 tgl 15 0 empty empty empty 17 7 0 10 -262144 -1 -1 1
1;
#X obj 207 114 + 1;
#X obj 207 66 osc~ 0.82;
#X obj 207 138 * 10;
#X obj 333 2 r wav2;
#X obj 553 157 r wav;
#X obj 634 277 notein 4;
#X obj 473 312 r wav2;
#X obj 473 336 print;
#X connect 0 0 13 0;
#X connect 2 0 13 0;
#X connect 4 0 14 1;
#X connect 7 1 18 0;
#X connect 8 0 15 1;
#X connect 9 0 8 0;
#X connect 9 1 8 1;
#X connect 12 0 3 0;
#X connect 12 1 5 0;
#X connect 12 2 6 0;
#X connect 13 0 12 0;
#X connect 14 0 37 0;
#X connect 15 0 11 0;
#X connect 16 0 11 0;
#X connect 17 0 16 0;
#X connect 18 0 19 0;
#X connect 18 0 36 0;
#X connect 19 0 16 1;
#X connect 20 0 50 0;
#X connect 21 0 51 0;
#X connect 22 0 51 0;
#X connect 23 0 50 0;
#X connect 24 0 50 0;
#X connect 25 0 51 0;
#X connect 26 0 51 0;
#X connect 27 0 50 0;
#X connect 28 0 50 0;
#X connect 29 0 31 0;
#X connect 29 0 50 0;
#X connect 30 0 35 0;
#X connect 31 0 51 0;
#X connect 32 0 34 0;
#X connect 33 0 32 0;
#X connect 34 0 31 1;
#X connect 35 0 29 0;
#X connect 35 0 33 0;
#X connect 36 0 29 0;
#X connect 36 0 33 0;
#X connect 37 0 52 0;
#X connect 38 0 48 0;
#X connect 39 0 38 0;
#X connect 40 0 46 0;
#X connect 41 0 37 1;
#X connect 42 1 39 0;
#X connect 42 1 43 0;
#X connect 43 0 44 0;
#X connect 44 0 45 0;
#X connect 45 0 47 0;
#X connect 46 0 45 0;
#X connect 46 1 45 1;
#X connect 47 0 37 1;
#X connect 48 0 49 0;
#X connect 49 0 40 0;
#X connect 50 0 16 2;
#X connect 51 0 16 3;
#X connect 52 0 10 0;
#X connect 52 1 10 1;
#X connect 53 0 52 1;
#X connect 54 0 57 0;
#X connect 55 0 56 0;
#X connect 56 0 53 0;
#X connect 57 0 52 1;
#X connect 58 0 59 0;
#X connect 58 0 60 0;
#X connect 59 0 52 1;
#X connect 60 0 57 0;
#X connect 61 0 52 1;
#X connect 62 0 63 0;
#X connect 63 0 61 0;
#X connect 64 0 65 0;
#X connect 65 0 66 0;
#X connect 66 0 52 1;
#X connect 67 0 70 0;
#X connect 68 0 67 0;
#X connect 69 0 68 0;
#X connect 70 0 72 0;
#X connect 71 0 67 0;
#X connect 72 0 62 0;
#X connect 73 0 17 0;
#X connect 74 0 15 0;
#X connect 75 0 4 0;
#X connect 75 1 4 1;
#X connect 76 0 14 0;
#X connect 76 0 77 0;
