#N canvas 711 360 711 575 12;
#X obj 38 35 tgl 15 0 empty empty empty 17 7 0 10 -262144 -1 -1 1 1
;
#X obj 38 79 cyclone/counter 7;
#X obj 38 103 sel 0 1 2 3 4 5 6 7;
#X obj 37 171 list split 1;
#X obj 100 204 synths/stereo-saw~;
#X obj 436 424 else/out~;
#X msg 33 130 48 64;
#X obj 37 195 - 12;
#X obj 156 170 t b;
#X msg 261 192 0;
#X obj 209 159 del 40;
#X obj 40 379 osc~;
#X obj 49 293 mtof;
#X obj 70 236 bng 15 250 50 0 empty empty empty 17 7 0 10 -262144 -1
-1;
#X msg 114 260 41;
#X msg 158 260 34;
#X obj 115 381 *~;
#X msg 158 322 1;
#X msg 210 300 0;
#X obj 228 244 del 100;
#X msg 140 130 55 64;
#X obj 158 346 else/adsr~ 50 200 1 200;
#X floatatom 237 97 5 0 0 0 - - -;
#X msg 70 260 36;
#X obj 38 340 line~;
#X msg 49 317 \$1 5;
#X msg 200 25 52 45;
#X msg 300 131 57 40;
#X msg 196 130 50 40;
#X obj 37 219 - 12;
#X msg 244 130 64 34;
#X obj 38 57 metro 1600;
#X connect 0 0 31 0;
#X connect 1 0 2 0;
#X connect 1 0 22 0;
#X connect 2 0 6 0;
#X connect 2 0 17 0;
#X connect 2 0 19 0;
#X connect 2 0 23 0;
#X connect 2 1 18 0;
#X connect 2 2 26 0;
#X connect 2 2 17 0;
#X connect 2 2 19 0;
#X connect 2 3 20 0;
#X connect 2 3 18 0;
#X connect 2 4 17 0;
#X connect 2 4 19 0;
#X connect 2 4 14 0;
#X connect 2 6 28 0;
#X connect 2 7 30 0;
#X connect 2 7 17 0;
#X connect 2 7 15 0;
#X connect 2 7 19 0;
#X connect 2 8 27 0;
#X connect 3 0 7 0;
#X connect 3 1 4 1;
#X connect 3 1 8 0;
#X connect 4 0 5 0;
#X connect 4 1 5 1;
#X connect 6 0 3 0;
#X connect 7 0 4 0;
#X connect 7 0 29 0;
#X connect 8 0 10 0;
#X connect 10 0 9 0;
#X connect 11 0 16 0;
#X connect 12 0 25 0;
#X connect 13 0 23 0;
#X connect 16 0 5 0;
#X connect 16 0 5 1;
#X connect 17 0 21 0;
#X connect 19 0 18 0;
#X connect 20 0 3 0;
#X connect 21 0 16 1;
#X connect 24 0 11 0;
#X connect 25 0 24 0;
#X connect 26 0 3 0;
#X connect 27 0 3 0;
#X connect 28 0 3 0;
#X connect 29 0 12 0;
#X connect 30 0 3 0;
#X connect 31 0 1 0;
