#N canvas 742 449 450 300 12;
#X obj 20 39 inlet~, f 7;
#X obj 80 39 inlet~, f 7;
#X obj 141 39 inlet;
#X obj 141 103 expr~ 1-$v1;
#X obj 20 129 *~;
#X obj 80 129 *~;
#X obj 80 153 outlet~;
#X obj 20 153 outlet~;
#X text 18 15 left;
#X text 78 16 right;
#X text 138 17 ducktrig;
#X obj 240 138 vline~;
#X obj 141 63 sel 1;
#X msg 338 101 0.6 \, 0.01 40;
#X msg 234 96 0.01 \, 0.6 15;
#X obj 338 77 del 16;
#X connect 0 0 4 0;
#X connect 1 0 5 0;
#X connect 2 0 12 0;
#X connect 3 0 4 1;
#X connect 3 0 5 1;
#X connect 4 0 7 0;
#X connect 5 0 6 0;
#X connect 11 0 3 0;
#X connect 12 0 14 0;
#X connect 12 0 15 0;
#X connect 13 0 11 0;
#X connect 14 0 11 0;
#X connect 15 0 13 0;
