#N canvas 406 244 721 495 12;
#X obj 22 23 inlet~;
#X obj 73 100 sel 1;
#X obj 37 146 tabwrite~ \$0-buf;
#X obj 73 23 table \$0-buf 44100;
#X obj 72 48 inlet;
#X obj 80 74 s \$0-gate;
#X obj 111 194 r \$0-gate;
#X obj 23 219 utils/switch~;
#X obj 117 123 s \$0-trig;
#X obj 207 23 r \$0-trig;
#X obj 207 143 expr 1/($f2-$f1);
#X obj 299 46 / 2000;
#X text 289 95 end;
#X msg 207 71 0, f 1;
#X obj 207 168 phasor~;
#X obj 207 201 *~;
#X obj 265 168 expr $f2-$f1;
#X obj 207 225 +~;
#X obj 207 249 *~ 44100;
#X obj 207 273 tabread4~ \$0-buf;
#X obj 23 315 outlet~;
#X obj 178 435 s~ \$0-play;
#X obj 67 170 r~ \$0-play;
#X obj 237 201 threshold~ 0.1 0 0.5 0;
#X obj 388 224 snapshot~;
#X obj 399 201 vline~;
#X msg 399 178 0 \, \$1 1000;
#X floatatom 388 248 5 0 0 0 - - -;
#X obj 262 96 +;
#X text 373 69 fix this;
#X obj 208 369 utils/switch4~;
#X obj 399 130 r \$0-trig;
#X obj 207 47 t b b;
#X obj 319 312 r \$0-trig;
#X obj 255 342 vcf~ 1;
#X obj 510 28 r \$0-trig;
#X obj 510 75 random 2000;
#X obj 510 99 + 500;
#X obj 596 75 random 100;
#X floatatom 519 149 5 0 0 0 - - -;
#X obj 519 125 expr $f1+$f1*($f2*0.02-1);
#X obj 589 26 bng 15 250 50 0 empty empty empty 17 7 0 10 -262144 -1
-1;
#X obj 510 229 vline~;
#X obj 510 181 pack f f f;
#X obj 510 52 t b b b;
#X obj 577 157 random 500;
#X msg 510 205 \$1 \, \$2 \$3;
#X obj 143 331 else/crusher~;
#X obj 418 358 line 0 20;
#X obj 483 281 pack f f;
#X obj 483 256 expr $f1/200;
#X msg 483 320 \$1 \$2;
#X floatatom 418 382 5 0 0 0 - - -;
#X floatatom 324 396 5 0 0 0 - - -;
#X obj 397 313 bng 15 250 50 0 empty empty empty 17 7 0 10 -262144
-1 -1;
#X obj 310 21 random 700;
#X obj 344 347 random 4;
#X msg 245 307 0.26, f 5;
#X obj 73 124 tgl 15 0 empty empty empty 17 7 0 10 -262144 -1 -1 0
1;
#X obj 129 98 sel 1;
#X floatatom 345 94 5 0 0 0 - - -;
#X obj 299 70 + 0.12;
#X obj 364 159 *;
#X obj 345 120 expr ($f1 > 0.4) * 0.02 - 0.01;
#X obj 399 154 random 30;
#X connect 0 0 2 0;
#X connect 0 0 7 0;
#X connect 1 0 2 0;
#X connect 1 0 58 0;
#X connect 4 0 1 0;
#X connect 4 0 5 0;
#X connect 6 0 7 2;
#X connect 7 0 20 0;
#X connect 9 0 32 0;
#X connect 10 0 14 0;
#X connect 11 0 61 0;
#X connect 13 0 10 0;
#X connect 13 0 14 1;
#X connect 13 0 16 0;
#X connect 13 0 17 1;
#X connect 14 0 15 0;
#X connect 14 0 23 0;
#X connect 15 0 17 0;
#X connect 16 0 15 1;
#X connect 17 0 18 0;
#X connect 18 0 19 0;
#X connect 19 0 34 0;
#X connect 19 0 30 0;
#X connect 19 0 47 0;
#X connect 22 0 7 1;
#X connect 23 1 24 0;
#X connect 24 0 27 0;
#X connect 25 0 24 0;
#X connect 26 0 25 0;
#X connect 27 0 28 1;
#X connect 28 0 10 1;
#X connect 30 0 21 0;
#X connect 31 0 64 0;
#X connect 32 0 13 0;
#X connect 32 1 55 0;
#X connect 33 0 56 0;
#X connect 34 0 30 2;
#X connect 34 1 30 3;
#X connect 35 0 44 0;
#X connect 36 0 37 0;
#X connect 37 0 40 0;
#X connect 37 0 43 0;
#X connect 38 0 40 1;
#X connect 38 0 50 0;
#X connect 39 0 43 1;
#X connect 40 0 39 0;
#X connect 41 0 44 0;
#X connect 42 0 34 1;
#X connect 43 0 46 0;
#X connect 44 0 36 0;
#X connect 44 1 38 0;
#X connect 44 2 45 0;
#X connect 45 0 43 2;
#X connect 45 0 49 1;
#X connect 46 0 42 0;
#X connect 47 0 30 1;
#X connect 48 0 52 0;
#X connect 49 0 51 0;
#X connect 50 0 49 0;
#X connect 51 0 48 0;
#X connect 52 0 47 2;
#X connect 55 0 11 0;
#X connect 56 0 30 4;
#X connect 56 0 53 0;
#X connect 57 0 47 2;
#X connect 57 0 47 1;
#X connect 58 0 59 0;
#X connect 59 0 8 0;
#X connect 60 0 63 0;
#X connect 61 0 28 0;
#X connect 61 0 16 1;
#X connect 61 0 60 0;
#X connect 62 0 26 0;
#X connect 63 0 62 0;
#X connect 64 0 62 1;
