#N canvas 426 294 596 367 12;
#X obj 34 98 hilbert~;
#X obj 34 122 *~;
#X obj 86 122 *~;
#X obj 188 76 phasor~;
#X obj 233 107 -~ 0.25;
#X obj 233 131 cos~;
#X obj 188 130 cos~;
#X obj 34 146 -~;
#X obj 35 74 *~ 0.975;
#X obj 35 37 inlet~;
#X obj 188 47 inlet~;
#X obj 34 170 outlet~;
#X connect 0 0 1 0;
#X connect 0 1 2 0;
#X connect 1 0 7 0;
#X connect 2 0 7 1;
#X connect 3 0 4 0;
#X connect 3 0 6 0;
#X connect 4 0 5 0;
#X connect 5 0 2 1;
#X connect 6 0 1 1;
#X connect 7 0 11 0;
#X connect 8 0 0 0;
#X connect 9 0 8 0;
#X connect 10 0 3 0;
