#N canvas 758 278 757 551 12;
#X obj 20 20 inlet~;
#X obj 98 63 delwrite~ \$0-pandel 1000;
#X obj 109 141 inlet;
#X obj 218 116 line~;
#X obj 362 117 line~;
#X obj 218 141 delread4~ \$0-pandel;
#X obj 539 113 osc~ 0.1;
#X obj 572 169 expr~ 1-$v1;
#X obj 539 137 expr~ $v1*0.5+0.5;
#X obj 217 297 *~;
#X obj 363 296 *~;
#X obj 249 297 *~;
#X obj 207 454 outlet~;
#X obj 399 459 outlet~;
#X obj 394 296 *~;
#X obj 405 21 r \$0-pandel-ms;
#X obj 109 165 s \$0-pandel-ms;
#X msg 156 140 500;
#X obj 156 115 loadbang;
#X obj 362 69 * 0.41;
#X obj 98 35 delwrite~ \$0-pandel-r 1000;
#X obj 362 141 delread4~ \$0-pandel-r;
#X obj 78 285 *~ 0.5;
#X obj 213 379 *~ 0.25;
#X obj 396 396 *~ 0.25;
#X obj 362 93 pack 0 1000;
#X obj 218 92 pack 0 1000;
#X obj 538 88 / 3300;
#X obj 241 184 hip~ 2000;
#X obj 383 181 lop~ 2000;
#X obj 79 7 inlet~;
#X connect 0 0 1 0;
#X connect 0 0 22 0;
#X connect 2 0 16 0;
#X connect 3 0 5 0;
#X connect 4 0 21 0;
#X connect 5 0 9 0;
#X connect 5 0 28 0;
#X connect 6 0 8 0;
#X connect 7 0 14 1;
#X connect 7 0 11 1;
#X connect 8 0 7 0;
#X connect 8 0 9 1;
#X connect 8 0 10 1;
#X connect 9 0 23 0;
#X connect 10 0 23 0;
#X connect 11 0 24 0;
#X connect 14 0 24 0;
#X connect 15 0 19 0;
#X connect 15 0 26 0;
#X connect 15 0 27 0;
#X connect 17 0 16 0;
#X connect 18 0 17 0;
#X connect 19 0 25 0;
#X connect 21 0 10 0;
#X connect 21 0 29 0;
#X connect 22 0 12 0;
#X connect 22 0 13 0;
#X connect 23 0 12 0;
#X connect 23 0 20 0;
#X connect 24 0 13 0;
#X connect 24 0 1 0;
#X connect 25 0 4 0;
#X connect 26 0 3 0;
#X connect 27 0 6 0;
#X connect 28 0 11 0;
#X connect 29 0 14 0;
#X connect 30 0 20 0;
