#N canvas 524 456 674 484 12;
#X obj 22 24 inlet~;
#X obj 32 82 delwrite~ \$0-haas 100;
#X obj 22 106 lop~ 1000;
#X obj 22 186 outlet~;
#X obj 86 186 outlet~;
#X obj 37 134 delread~ \$0-haas 15;
#X obj 86 161 delread~ \$0-haas 25;
#X obj 197 91 delwrite~ \$0-haas-2 100;
#X obj 198 132 delread~ \$0-haas-2 35;
#X obj 247 159 delread~ \$0-haas-2 55;
#X obj 197 42 bp~ 5000 4;
#X obj 104 29 bp~ 2000 4;
#X obj 197 66 *~ 0.5;
#X obj 104 53 *~ 0.66;
#X connect 0 0 2 0;
#X connect 0 0 10 0;
#X connect 0 0 11 0;
#X connect 2 0 3 0;
#X connect 2 0 4 0;
#X connect 5 0 3 0;
#X connect 6 0 4 0;
#X connect 8 0 3 0;
#X connect 9 0 4 0;
#X connect 10 0 12 0;
#X connect 11 0 13 0;
#X connect 12 0 7 0;
#X connect 13 0 1 0;
