#N canvas 309 334 450 300 12;
#X obj 19 89 midirealtimein;
#X obj 19 140 sel 248;
#X obj 19 166 cyclone/counter 24;
#X obj 19 191 sel 0;
#X obj 19 216 bng 15 250 50 0 empty empty empty 17 7 0 10 -262144 -1
-1;
#X obj 28 115 midiout;
#X obj 19 61 noteout 1;
#X obj 92 61 noteout 2;
#X obj 164 61 noteout 3;
#X obj 237 61 noteout 4;
#X text 17 13 midi passthru;
#X obj 94 238 timer, f 11;
#X obj 94 213 t b b;
#X obj 19 236 outlet;
#X obj 94 262 outlet;
#X obj 19 36 notein 9, f 9;
#X obj 92 36 notein 10;
#X obj 164 36 notein 11;
#X obj 237 36 notein 12;
#X obj 131 89 notein 13;
#X obj 204 89 notein 14;
#X obj 276 89 notein 15;
#X obj 349 89 notein 16;
#X obj 131 114 noteout 5;
#X obj 204 114 noteout 6;
#X obj 276 114 noteout 7;
#X obj 350 114 noteout 8;
#X connect 0 0 1 0;
#X connect 0 0 5 0;
#X connect 1 0 2 0;
#X connect 2 0 3 0;
#X connect 3 0 4 0;
#X connect 4 0 12 0;
#X connect 4 0 13 0;
#X connect 11 0 14 0;
#X connect 12 0 11 0;
#X connect 12 1 11 1;
#X connect 15 0 6 0;
#X connect 15 1 6 1;
#X connect 16 0 7 0;
#X connect 16 1 7 1;
#X connect 17 0 8 0;
#X connect 17 1 8 1;
#X connect 18 0 9 0;
#X connect 18 1 9 1;
#X connect 19 0 23 0;
#X connect 19 1 23 1;
#X connect 20 0 24 0;
#X connect 20 1 24 1;
#X connect 21 0 25 0;
#X connect 21 1 25 1;
#X connect 22 0 26 0;
#X connect 22 1 26 1;
