#N canvas 309 334 450 300 12;
#X obj 19 89 midirealtimein;
#X obj 19 140 sel 248;
#X obj 19 166 cyclone/counter 24;
#X obj 19 191 sel 0;
#X obj 19 216 bng 15 250 50 0 empty empty empty 17 7 0 10 -262144 -1
-1;
#X obj 28 115 midiout;
#X obj 19 61 noteout 1;
#X obj 92 61 noteout 2;
#X obj 19 36 notein 6, f 9;
#X obj 92 36 notein 7, f 9;
#X obj 164 36 notein 8, f 9;
#X obj 164 61 noteout 3;
#X obj 237 61 noteout 4;
#X obj 237 36 notein 9, f 9;
#X text 17 13 midi passthru;
#X obj 94 238 timer, f 11;
#X obj 94 213 t b b;
#X obj 19 236 outlet;
#X obj 94 262 outlet;
#X connect 0 0 1 0;
#X connect 0 0 5 0;
#X connect 1 0 2 0;
#X connect 2 0 3 0;
#X connect 3 0 4 0;
#X connect 4 0 16 0;
#X connect 4 0 17 0;
#X connect 8 0 6 0;
#X connect 8 1 6 1;
#X connect 9 0 7 0;
#X connect 9 1 7 1;
#X connect 10 0 11 0;
#X connect 10 1 11 1;
#X connect 13 0 12 0;
#X connect 13 1 12 1;
#X connect 15 0 18 0;
#X connect 16 0 15 0;
#X connect 16 1 15 1;
