#N canvas 855 434 450 300 12;
#X obj 22 23 inlet~;
#X obj 321 25 inlet;
#X obj 22 175 *~;
#X obj 48 150 line~;
#X msg 48 125 \$1 20;
#X obj 99 23 inlet~;
#X obj 48 100 == 0;
#X obj 99 174 *~;
#X obj 126 149 line~;
#X msg 126 124 \$1 20;
#X obj 126 99 == 1;
#X obj 22 222 outlet~;
#X obj 48 50 loadbang;
#X msg 48 75 0, f 1;
#X obj 176 23 inlet~;
#X obj 176 174 *~;
#X obj 203 149 line~;
#X msg 203 124 \$1 20;
#X obj 255 23 inlet~;
#X obj 255 174 *~;
#X obj 282 149 line~;
#X msg 282 124 \$1 20;
#X obj 203 99 == 2;
#X obj 282 99 == 3;
#X connect 0 0 2 0;
#X connect 1 0 10 0;
#X connect 1 0 6 0;
#X connect 1 0 22 0;
#X connect 1 0 23 0;
#X connect 2 0 11 0;
#X connect 3 0 2 1;
#X connect 4 0 3 0;
#X connect 5 0 7 0;
#X connect 6 0 4 0;
#X connect 7 0 11 0;
#X connect 8 0 7 1;
#X connect 9 0 8 0;
#X connect 10 0 9 0;
#X connect 12 0 13 0;
#X connect 13 0 6 0;
#X connect 14 0 15 0;
#X connect 15 0 11 0;
#X connect 16 0 15 1;
#X connect 17 0 16 0;
#X connect 18 0 19 0;
#X connect 19 0 11 0;
#X connect 20 0 19 1;
#X connect 21 0 20 0;
#X connect 22 0 17 0;
#X connect 23 0 21 0;
